<?xml version="1.0" encoding="utf-8"?>
<!-- Generator: Adobe Illustrator 16.0.0, SVG Export Plug-In . SVG Version: 6.00 Build 0)  -->
<!DOCTYPE svg PUBLIC "-//W3C//DTD SVG 1.1//EN" "http://www.w3.org/Graphics/SVG/1.1/DTD/svg11.dtd">
<svg version="1.1" id="Layer_1" xmlns="http://www.w3.org/2000/svg" xmlns:xlink="http://www.w3.org/1999/xlink" x="0px" y="0px"
	 width="65.088px" height="65.089px" viewBox="0 0 65.088 65.089" enable-background="new 0 0 65.088 65.089" xml:space="preserve">
<path id="Blue_1_" fill="#3D5A98" d="M61.497,65.089c1.983,0,3.592-1.608,3.592-3.592V3.592C65.088,1.608,63.479,0,61.497,0H3.592
	C1.608,0,0,1.608,0,3.592v57.904c0,1.984,1.608,3.592,3.592,3.592H61.497z"/>
<path id="f" fill="#FFFFFF" d="M44.91,65.089V39.883h8.46l1.268-9.824H44.91v-6.271c0-2.845,0.791-4.783,4.869-4.783l5.202-0.002
	v-8.786c-0.9-0.119-3.987-0.386-7.58-0.386c-7.5,0-12.634,4.578-12.634,12.984v7.244h-8.482v9.824h8.482v25.206H44.91z"/>
</svg>
